# xmcd CD database file
#
# Track frame offsets:
#	150
#	12650
#	25835
#	38920
#	51937
#	66060
#	78930
#	92925
#	106952
#	120725
#	134615
#	147282
#	161720
#	173912
#	188317
#	201760
#	215050
#	229162
#	243300
#	255250
#	269297
#	283767
#
# Disc length: 3970 seconds
#
# Revision: 0
# Processed by: cddbd v1.5.1PL0 Copyright (c) Steve Scherf et al.
# Submitted via: CDex 1.51
#
DISCID=3e0f8016
DTITLE=Red Nichols And Miff Mole 1927 - Jazz Archives No. 15
DYEAR=1927
DGENRE=Jazz
TTITLE0=The Arkansas Travellers - Washboard Blues
TTITLE1=The Arkansas Travellers - That큦 No Bargain
TTITLE2=The Arkansas Travellers - Boneyard Shuffle
TTITLE3=Miff Mole큦 Mollers - Alexander큦 Ragtime Band
TTITLE4=Miff Mole큦 Mollers - Some Sweet Day
TTITLE5=Miff Mole큦 Mollers - Hurricane
TTITLE6=Red And Miff큦 Stompers - Delirium (take-2)
TTITLE7=Red And Miff큦 Stompers - Delirium (take-3)
TTITLE8=Red And Miff큦 Stompers - Davenport Blues (take-2)
TTITLE9=Red And Miff큦 Stompers - Davenport Blues (take-3)
TTITLE10=The Charleston Chasers - Farewell Blues
TTITLE11=The Charleston Chasers - Cavenport Blues
TTITLE12=The Charleston Chasers - Wabash Blues
TTITLE13=Miff Mole큦 Molers - Davenport Blues
TTITLE14=Miff Mole큦 Molers - The Darktown Strutters Ball
TTITLE15=Miff Mole큦 Molers - A Hot Time In The Old Town Tonight
TTITLE16=Carl Fenton And His Orchestra - Delirium
TTITLE17=The Arkansas Travellers - Ja Da
TTITLE18=The Arkansas Travellers - Sensation
TTITLE19=The Arkansas Travellers - Stompin Fool
TTITLE20=The Charleston Chasers - My Gal Sal
TTITLE21=The Charleston Chasers - Delirium
EXTD=YEAR: 1927
EXTT0=
EXTT1=
EXTT2=
EXTT3=
EXTT4=
EXTT5=
EXTT6=
EXTT7=
EXTT8=
EXTT9=
EXTT10=
EXTT11=
EXTT12=
EXTT13=
EXTT14=
EXTT15=
EXTT16=
EXTT17=
EXTT18=
EXTT19=
EXTT20=
EXTT21=
PLAYORDER=
